<?xml version="1.0" encoding="utf-8"?>
<!-- Generator: Adobe Illustrator 20.1.0, SVG Export Plug-In . SVG Version: 6.00 Build 0)  -->
<svg version="1.1" id="Capa_1" xmlns="http://www.w3.org/2000/svg" xmlns:xlink="http://www.w3.org/1999/xlink" x="0px" y="0px"
	 viewBox="0 0 512 512" style="enable-background:new 0 0 512 512;" xml:space="preserve">
<style type="text/css">
	.st0{fill:#6E6E6E;}
</style>
<path class="st0" d="M0,256.1c0,2.9,1.4,5.6,3.8,7.3l242.5,170.7c1.6,1,3.4,1.6,5.2,1.6c1.4,0,2.8-0.3,4.1-1c2.9-1.6,4.8-4.6,4.8-8
	V267l237.4,167c1.6,1,3.4,1.6,5.2,1.6c1.4,0,2.8-0.3,4.1-1c2.9-1.6,4.8-4.6,4.8-8V85.5c0-3.4-1.8-6.5-4.8-8c-3-1.6-6.6-1.3-9.3,0.6
	L260.3,245V85.4c0-3.4-1.8-6.5-4.8-8c-3-1.6-6.6-1.3-9.3,0.6L3.7,248.7C1.3,250.3-0.1,253.1,0,256.1z"/>
</svg>
