<?xml version="1.0" encoding="utf-8"?>
<!-- Generator: Adobe Illustrator 20.1.0, SVG Export Plug-In . SVG Version: 6.00 Build 0)  -->
<svg version="1.1" id="Capa_1" xmlns="http://www.w3.org/2000/svg" xmlns:xlink="http://www.w3.org/1999/xlink" x="0px" y="0px"
	 viewBox="0 0 512 512" style="enable-background:new 0 0 512 512;" xml:space="preserve">
<style type="text/css">
	.st0{fill:#808080;}
</style>
<g>
	<g id="loop_x5F_alt4">
		<g>
			<path class="st0" d="M454.7,288c-3.5,0-6.6,2.5-7.2,5.9c-2.8,14.8-15.8,26.1-31.5,26.1H135.3c-4.1,0-7.4-3.3-7.4-7.4v-41.8
				c0-6.1-7-9.6-11.8-5.9L7.9,346.1c-3.9,3-3.9,8.9,0,11.8l108.2,81.2c4.9,3.7,11.8,0.2,11.8-5.9v-41.8c0-4.1,3.3-7.4,7.4-7.4H416
				c50.2,0,91.6-38.8,95.7-88c0.4-4.3-3-8-7.4-8H454.7z"/>
			<path class="st0" d="M96,192h280.6c4.1,0,7.4,3.3,7.4,7.4v41.8c0,6.1,6.9,9.6,11.8,5.9l108.3-81.2c3.9-3,3.9-8.9,0-11.8
				L395.8,72.9c-4.9-3.7-11.8-0.2-11.8,5.9v41.8c0,4.1-3.3,7.4-7.4,7.4H96c-50.2,0-91.6,38.7-95.7,88c-0.4,4.3,3,8,7.4,8h49.6
				c3.5,0,6.6-2.5,7.2-5.9C67.3,203.3,80.4,192,96,192z"/>
		</g>
	</g>
</g>
</svg>
