<?xml version="1.0" encoding="utf-8"?>
<!-- Generator: Adobe Illustrator 20.1.0, SVG Export Plug-In . SVG Version: 6.00 Build 0)  -->
<svg version="1.1" id="Capa_1" xmlns="http://www.w3.org/2000/svg" xmlns:xlink="http://www.w3.org/1999/xlink" x="0px" y="0px"
	 viewBox="0 0 512 512" style="enable-background:new 0 0 512 512;" xml:space="preserve">
<style type="text/css">
	.st0{fill:#6E6E6E;}
</style>
<path class="st0" d="M508.2,248.7L265.7,78c-2.7-1.9-6.3-2.2-9.3-0.6c-3,1.5-4.8,4.6-4.8,8V245L14.1,78.1c-2.7-1.9-6.3-2.2-9.3-0.6
	c-3,1.5-4.8,4.6-4.8,8v341.1c0,3.4,1.9,6.4,4.8,8c1.3,0.7,2.7,1,4.1,1c1.8,0,3.6-0.6,5.2-1.6L251.5,267v159.7c0,3.4,1.9,6.4,4.8,8
	c1.3,0.7,2.7,1,4.1,1c1.8,0,3.6-0.6,5.2-1.6l242.5-170.7c2.4-1.7,3.8-4.4,3.8-7.3C512,253.1,510.6,250.3,508.2,248.7z"/>
</svg>
