<?xml version="1.0" encoding="utf-8"?>
<!-- Generator: Adobe Illustrator 20.1.0, SVG Export Plug-In . SVG Version: 6.00 Build 0)  -->
<svg version="1.1" id="Capa_1" xmlns="http://www.w3.org/2000/svg" xmlns:xlink="http://www.w3.org/1999/xlink" x="0px" y="0px"
	 viewBox="0 0 512 512" style="enable-background:new 0 0 512 512;" xml:space="preserve">
<style type="text/css">
	.st0{fill:#419BF9;}
</style>
<g>
	<g>
		<path class="st0" d="M234.9,266.6c8.8-15.4,16.2-27.6,22.3-36.4c4.6-6.5,8.9-12,12.9-16.5s8.9-8.8,14.6-13.1s12.3-7.4,19.7-9.6
			c7.4-2.1,15.7-3.2,24.9-3.2h73.1v40.8c0,1.8,0.9,3.4,2.7,4.8c1.8,1.3,4,2,6.4,2c2.7,0,4.9-0.6,6.6-1.9l91.4-68
			c1.7-1.3,2.6-2.9,2.6-4.9s-0.9-3.6-2.6-4.9L418.3,88c-2.3-1.4-4.6-2.1-6.9-2.1c-2.7,0-4.9,0.6-6.6,1.9s-2.6,2.9-2.6,4.9v40.8
			h-73.1c-13,0-25.1,1.2-36.6,3.5c-11.4,2.3-21.6,5.3-30.4,8.9c-8.9,3.6-17.4,8.5-25.7,14.6s-15.3,12-21.1,17.6
			c-5.8,5.7-11.9,12.8-18.3,21.3c-6.4,8.5-11.5,15.9-15.4,22.3c-3.9,6.4-8.6,14.2-14.1,23.6c-8.8,15.5-16.2,27.6-22.3,36.4
			c-4.6,6.5-8.9,12-12.9,16.5s-8.9,8.8-14.6,13.1c-5.7,4.3-12.3,7.4-19.7,9.6c-7.4,2.1-15.7,3.2-24.9,3.2h-64
			c-2.7,0-4.9,0.6-6.6,1.9s-2.6,2.9-2.6,4.9v40.8c0,2,0.9,3.6,2.6,4.9s3.9,1.9,6.6,1.9h64c13,0,25.1-1.2,36.6-3.5
			c11.4-2.3,21.6-5.3,30.4-8.9c8.9-3.6,17.4-8.5,25.7-14.6s15.3-12,21.1-17.6c5.8-5.7,11.9-12.8,18.3-21.3
			c6.4-8.5,11.5-15.9,15.4-22.3C224.6,283.9,229.3,276,234.9,266.6z"/>
		<path class="st0" d="M9.1,188h64c8.4,0,16.1,1,23.3,3.1s13.1,4.5,18,7.4s9.7,6.9,14.6,12c4.9,5.1,8.7,9.6,11.6,13.5
			c2.9,3.9,6.4,9,10.6,15.4c14.7-25.7,27.7-45,39.1-58c-30.5-31.9-69.5-47.8-117.1-47.8h-64c-2.7,0-4.9,0.6-6.6,1.9
			c-1.7,1.3-2.6,2.9-2.6,4.9v40.8c0,2,0.9,3.6,2.6,4.9C4.3,187.3,6.5,188,9.1,188z"/>
		<path class="st0" d="M418.3,278.5c-2.3-1.4-4.6-2.1-6.9-2.1c-2.7,0-4.9,0.6-6.6,1.9s-2.6,2.9-2.6,4.9V324h-73.1
			c-8.4,0-16.1-1-23.3-3.1c-7.1-2.1-13.1-4.5-18-7.4s-9.7-6.9-14.6-12s-8.7-9.6-11.6-13.5s-6.4-9-10.6-15.4
			c-14.7,25.5-27.6,44.9-38.9,58c5.1,5.5,10.5,10.5,16,14.8s10.8,8.1,15.7,11.4c5,3.3,10.6,6.1,16.9,8.5c6.3,2.4,11.8,4.4,16.6,6.1
			c4.8,1.6,10.8,2.9,18,3.9s13.3,1.7,18.3,2.2s11.7,0.9,20.3,1.1c8.6,0.2,15.5,0.3,20.8,0.2c5.3-0.1,13.1-0.1,23.2-0.2
			s18.2-0.1,24.3-0.1v40.8c0,1.8,0.9,3.4,2.7,4.8c1.8,1.3,4,2,6.4,2c2.7,0,4.9-0.6,6.6-1.9l91.4-68c1.7-1.3,2.6-2.9,2.6-4.9
			s-0.9-3.6-2.6-4.9L418.3,278.5z"/>
	</g>
</g>
</svg>
