<?xml version="1.0" encoding="utf-8"?>
<!-- Generator: Adobe Illustrator 20.1.0, SVG Export Plug-In . SVG Version: 6.00 Build 0)  -->
<svg version="1.1" id="Capa_1" xmlns="http://www.w3.org/2000/svg" xmlns:xlink="http://www.w3.org/1999/xlink" x="0px" y="0px"
	 viewBox="0 0 512 512" style="enable-background:new 0 0 512 512;" xml:space="preserve">
<style type="text/css">
	.st0{fill:#808080;}
</style>
<g>
	<path class="st0" d="M212.7,63.5l-97.2,72.8H26.6C12,136.4,0,148.3,0,163v185.6c0,14.7,12,26.6,26.6,26.6h88.8l97.2,72.8
		c17.8,13.3,42.6,0.9,42.6-21.3V84.8C255.3,62.6,230,50.2,212.7,63.5z"/>
	<path class="st0" d="M343.3,107c-12-12-32-12-44,0c-12,12-12,32,0,44c57.7,57.7,57.7,151.4,0,209.2c-12,12-12,32,0,44
		c6.2,6.2,14.2,8.9,21.8,8.9c7.5,0,16-3.1,21.8-9.3C425.4,322.4,425.4,189.2,343.3,107z"/>
</g>
</svg>
