<?xml version="1.0" encoding="iso-8859-1"?>
<!-- Generator: Adobe Illustrator 18.1.1, SVG Export Plug-In . SVG Version: 6.00 Build 0)  -->
<svg xmlns="http://www.w3.org/2000/svg" xmlns:xlink="http://www.w3.org/1999/xlink" version="1.1" id="Capa_1" x="0px" y="0px" viewBox="0 0 266.514 266.514" style="enable-background:new 0 0 266.514 266.514;" xml:space="preserve" width="512px" height="512px">
<g>
	<g>
		<path d="M133.257,96.027c-20.527,0-37.23,16.703-37.23,37.236c0,20.527,16.703,37.23,37.23,37.23    s37.23-16.703,37.23-37.23C170.487,112.73,153.784,96.027,133.257,96.027z M133.257,155.922    c-12.515,0-22.665-10.144-22.665-22.665c0-12.521,10.144-22.665,22.665-22.665c12.521,0,22.665,10.144,22.665,22.665    C155.922,145.778,145.772,155.922,133.257,155.922z" fill="#444444"/>
		<path d="M133.257,0C59.661,0,0,59.661,0,133.257s59.661,133.257,133.257,133.257    s133.257-59.661,133.257-133.257S206.853,0,133.257,0z M133.257,179.424c-25.455,0-46.167-20.712-46.167-46.167    c0-25.46,20.712-46.167,46.167-46.167s46.167,20.712,46.167,46.167C179.424,158.717,158.712,179.424,133.257,179.424z" fill="#444444"/>
	</g>
</g>
<g>
</g>
<g>
</g>
<g>
</g>
<g>
</g>
<g>
</g>
<g>
</g>
<g>
</g>
<g>
</g>
<g>
</g>
<g>
</g>
<g>
</g>
<g>
</g>
<g>
</g>
<g>
</g>
<g>
</g>
</svg>
