<?xml version="1.0" encoding="utf-8"?>
<!-- Generator: Adobe Illustrator 20.1.0, SVG Export Plug-In . SVG Version: 6.00 Build 0)  -->
<svg version="1.1" id="Layer_1" xmlns="http://www.w3.org/2000/svg" xmlns:xlink="http://www.w3.org/1999/xlink" x="0px" y="0px"
	 viewBox="0 0 128 128" style="enable-background:new 0 0 128 128;" xml:space="preserve">
<path d="M1.7,68.9c-1-1-1.5-2.5-1.5-3.4c0-1,0.5-2.5,1.5-3.4l6.9-6.9c2-2,4.9-2,6.9,0l0.5,0.5l27,28.9c1,1,2.5,1,3.4,0l65.7-68.2
	h0.5l0,0c2-2,4.9-2,6.9,0l6.9,6.9c2,2,2,4.9,0,6.9l0,0l-78.5,81.4c-1,1-2,1.5-3.4,1.5s-2.5-0.5-3.4-1.5L2.7,70.4
	C2.7,70.4,1.7,68.9,1.7,68.9z"/>
</svg>
