<?xml version="1.0" encoding="utf-8"?>
<!-- Generator: Adobe Illustrator 20.1.0, SVG Export Plug-In . SVG Version: 6.00 Build 0)  -->
<svg version="1.1" id="Capa_1" xmlns="http://www.w3.org/2000/svg" xmlns:xlink="http://www.w3.org/1999/xlink" x="0px" y="0px"
	 viewBox="0 0 256 256" style="enable-background:new 0 0 256 256;" xml:space="preserve">
<path d="M114.4,196.9H50.1c-27.1,0-49.2-22.1-49.2-49.2c0-18.9,12.3-38.4,29.2-46.5l2.6-1.2v-2.9c0-0.6,0-1.2,0.1-1.8l0-0.7l-0.1-1
	c0-0.4-0.1-0.7-0.1-1.1c0-17.5,14.3-31.8,31.8-31.8c1.4,0,2.8,0.1,4.2,0.3c0.4,0,0.7,0.1,1.1,0.2c1.2,0.2,2.4,0.5,3.6,0.8
	c0.2,0,0.3,0.1,0.5,0.1c1.3,0.4,2.6,0.9,3.8,1.5c0.3,0.1,0.6,0.3,1,0.5c1.1,0.5,2.2,1.1,3.2,1.8c8.7,5.7,14.6,15.5,14.6,26.7
	c0,2.5,2,4.5,4.5,4.5c2.5,0,4.5-2,4.5-4.5c0-12.5-5.7-23.7-14.5-31.2c13-17,34.4-27.8,55.8-27.8c35.2,0,64.4,27.9,67.4,63
	c-4.6-0.3-11.6-0.5-18.5,0.6c-2.5,0.4-4.2,2.7-3.8,5.2c0.3,2.2,2.3,3.9,4.5,3.9c0.2,0,0.5,0,0.7-0.1c10.1-1.5,20.6-0.1,21.3,0
	c21.1,4,37.1,23.5,37.1,45.3c0,25.1-20.4,45.5-45.5,45.5h-58.9H114.4z"/>
</svg>
