<?xml version="1.0" encoding="utf-8"?>
<!-- Generator: Adobe Illustrator 20.1.0, SVG Export Plug-In . SVG Version: 6.00 Build 0)  -->
<svg version="1.1" id="Capa_1" xmlns="http://www.w3.org/2000/svg" xmlns:xlink="http://www.w3.org/1999/xlink" x="0px" y="0px"
	 viewBox="0 0 56 56" style="enable-background:new 0 0 56 56;" xml:space="preserve">
<g>
	<path d="M47.8,26c-0.1,0-2.5-0.3-4.7,0c-0.1,0-0.1,0-0.2,0c-0.5,0-0.9-0.4-1-0.8c-0.1-0.5,0.3-1.1,0.8-1.1c1.5-0.2,3.1-0.2,4.1-0.1
		C46.3,16.1,39.8,10,32.1,10c-4.7,0-9.4,2.4-12.3,6.1c2,1.7,3.2,4.1,3.2,6.9c0,0.6-0.4,1-1,1s-1-0.4-1-1c0-2.5-1.3-4.6-3.2-5.9
		c-0.2-0.1-0.5-0.3-0.7-0.4c-0.1,0-0.1-0.1-0.2-0.1c-0.3-0.1-0.5-0.2-0.8-0.3c0,0-0.1,0-0.1,0c-0.3-0.1-0.5-0.1-0.8-0.2
		c-0.1,0-0.2,0-0.2,0C14.6,16,14.3,16,14,16c-3.9,0-7,3.1-7,7c0,0.1,0,0.2,0,0.2l0,0.2l0,0.2c0,0.1,0,0.3,0,0.4v0.6l-0.6,0.3
		C2.7,26.7,0,31,0,35.2C0,41.1,4.9,46,10.8,46H25h8h13c5.5,0,10-4.5,10-10C56,31.2,52.5,26.9,47.8,26z M33.4,41.2
		C33.4,41.3,33.4,41.3,33.4,41.2c-1.6,1-3.3,1.4-5.1,1.2c-1.8-0.2-3.3-0.9-4.6-2.2c-0.7-0.7-1.2-1.5-1.6-2.4
		c-0.4-0.9-0.6-1.9-0.6-2.9l-1.8,0c-0.2,0-0.3-0.1-0.5-0.2C19,34.7,19,34.5,19,34.3c0-0.2,0.1-0.3,0.2-0.5l3.2-3.2
		c0.1-0.1,0.3-0.2,0.5-0.2c0.2,0,0.3,0.1,0.5,0.2l3.2,3.2c0.1,0.1,0.2,0.3,0.2,0.5c0,0.2-0.1,0.3-0.2,0.5S26.2,35,26,35l-2,0
		c0,0.7,0.2,1.3,0.4,1.9c0.3,0.6,0.6,1.1,1.1,1.6c0.6,0.6,1.4,1.1,2.3,1.3c0.9,0.2,1.7,0.3,2.6,0.1c0.1,0,0.5-0.2,1.2-0.5
		c0.1-0.1,0.3-0.1,0.4,0.1l1.4,1.4c0.1,0.1,0.1,0.1,0.1,0.2C33.5,41.1,33.5,41.2,33.4,41.2z M39.3,35.7l-3.2,3.2
		c-0.1,0.1-0.3,0.2-0.5,0.2c-0.2,0-0.3-0.1-0.5-0.2L32,35.7c-0.1-0.1-0.2-0.3-0.2-0.5c0-0.2,0.1-0.3,0.2-0.5
		c0.1-0.1,0.3-0.2,0.5-0.2l2,0c-0.1-1.4-0.6-2.5-1.5-3.5c-0.6-0.6-1.4-1.1-2.3-1.3c-0.9-0.2-1.7-0.3-2.6-0.1c-0.1,0-0.5,0.2-1.2,0.5
		c-0.1,0.1-0.3,0.1-0.4-0.1L25,28.7c-0.1-0.1-0.1-0.1-0.1-0.2c0-0.1,0-0.2,0.1-0.2l0.1-0.1c1.6-1,3.3-1.4,5-1.2
		c1.8,0.2,3.3,0.9,4.6,2.2c0.7,0.7,1.2,1.5,1.6,2.4c0.4,0.9,0.6,1.9,0.6,2.9l1.9,0c0.2,0,0.3,0.1,0.5,0.2c0.1,0.1,0.2,0.3,0.2,0.5
		C39.5,35.4,39.5,35.6,39.3,35.7z"/>
</g>
</svg>
