<?xml version="1.0" encoding="utf-8"?>
<!-- Generator: Adobe Illustrator 20.1.0, SVG Export Plug-In . SVG Version: 6.00 Build 0)  -->
<svg version="1.1" id="Capa_1" xmlns="http://www.w3.org/2000/svg" xmlns:xlink="http://www.w3.org/1999/xlink" x="0px" y="0px"
	 viewBox="0 0 256 256" style="enable-background:new 0 0 256 256;" xml:space="preserve">
<g>
	<path d="M217.2,88.4c-2.2-38.3-33.8-68.8-71.8-68.8c-23.1,0-45.4,11.3-59.3,29.8c-0.3-0.2-0.7-0.3-1-0.4c-0.8-0.4-1.7-0.8-2.6-1.1
		c-0.5-0.2-1-0.4-1.5-0.5c-0.9-0.3-1.7-0.6-2.6-0.8c-0.5-0.1-1-0.3-1.5-0.4c-1-0.2-1.9-0.4-2.9-0.5c-0.4-0.1-0.9-0.1-1.3-0.2
		c-1.4-0.2-2.8-0.3-4.3-0.3c-21.1,0-38.3,17.2-38.3,38.3c0,0.5,0,1.1,0.1,1.6c-17.7,9.6-29.8,29.8-29.8,50
		c0,30.1,24.5,54.6,54.6,54.6H77c2.4,0,4.3-1.9,4.3-4.3c0-2.4-1.9-4.3-4.3-4.3H55.1C29.7,181.1,9,160.5,9,135
		c0-17.7,11.5-36,27.3-43.6l2.4-1.2v-2.7c0-0.5,0-1,0.1-1.6l0-0.8l-0.1-0.8c0-0.4-0.1-0.7-0.1-1.1c0-16.4,13.4-29.8,29.8-29.8
		c1.3,0,2.6,0.1,3.9,0.3c0.3,0,0.7,0.1,1,0.2c1.1,0.2,2.3,0.4,3.4,0.8c0.1,0,0.3,0.1,0.5,0.1c1.2,0.4,2.4,0.8,3.5,1.4
		c0.3,0.1,0.6,0.3,0.9,0.4c1,0.5,2,1.1,3,1.7c8.2,5.3,13.6,14.5,13.6,25c0,2.4,1.9,4.3,4.3,4.3s4.3-1.9,4.3-4.3
		c0-11.7-5.3-22.2-13.6-29.2c12.2-15.9,32.3-26.1,52.2-26.1c32.9,0,60.3,26.1,63.1,59c-4.3-0.3-10.8-0.5-17.4,0.5
		c-2.3,0.4-3.9,2.5-3.6,4.8c0.3,2.1,2.1,3.6,4.2,3.6c0.2,0,0.4,0,0.6-0.1c9.5-1.4,19.3-0.1,19.9,0c19.8,3.8,34.7,22,34.7,42.4
		c0,23.5-19.1,42.6-42.6,42.6h-16.9c-2.4,0-4.3,1.9-4.3,4.3c0,2.4,1.9,4.3,4.3,4.3h16.9c28.2,0,51.1-22.9,51.1-51.1
		C255.5,115.2,239.3,94.3,217.2,88.4z"/>
	<path d="M163.2,195.1l-26.7,26.7v-87.5c0-2.4-1.9-4.3-4.3-4.3c-2.4,0-4.3,1.9-4.3,4.3v87.5l-26.7-26.7c-1.7-1.7-4.3-1.7-6,0
		c-1.7,1.7-1.7,4.3,0,6l34,34c0.4,0.4,0.9,0.7,1.4,0.9c0.5,0.2,1.1,0.3,1.6,0.3c0.6,0,1.1-0.1,1.6-0.3c0.5-0.2,1-0.5,1.4-0.9l34-34
		c1.7-1.7,1.7-4.3,0-6S164.9,193.5,163.2,195.1z"/>
</g>
</svg>
