<?xml version="1.0" encoding="utf-8"?>
<!-- Generator: Adobe Illustrator 20.1.0, SVG Export Plug-In . SVG Version: 6.00 Build 0)  -->
<svg version="1.1" id="Capa_1" xmlns="http://www.w3.org/2000/svg" xmlns:xlink="http://www.w3.org/1999/xlink" x="0px" y="0px"
	 viewBox="0 0 477.2 477.2" style="enable-background:new 0 0 477.2 477.2;" xml:space="preserve">
<style type="text/css">
	.st0{stroke:#000000;stroke-width:20;stroke-miterlimit:10;}
</style>
<g>
	<path class="st0" d="M238.6,368.4l-75.3-75.3c-1.9-1.9-4.8-1.9-6.7,0c-1.9,1.9-1.9,4.8,0,6.7l78.6,78.6c1.9,1.9,4.8,1.9,6.7,0
		l78.6-78.6c0.9-0.9,1.4-2.1,1.4-3.3s-0.5-2.4-1.4-3.3c-1.9-1.9-4.8-1.9-6.7,0L238.6,368.4z"/>
</g>
<g>
	<path class="st0" d="M238.6,108.8l75.3,75.3c1.9,1.9,4.8,1.9,6.7,0c1.9-1.9,1.9-4.8,0-6.7l-78.6-78.6c-1.9-1.9-4.8-1.9-6.7,0
		l-78.6,78.6c-0.9,0.9-1.4,2.1-1.4,3.3s0.5,2.4,1.4,3.3c1.9,1.9,4.8,1.9,6.7,0L238.6,108.8z"/>
</g>
</svg>
