<?xml version="1.0" encoding="utf-8"?>
<!-- Generator: Adobe Illustrator 20.1.0, SVG Export Plug-In . SVG Version: 6.00 Build 0)  -->
<svg version="1.1" id="Capa_1" xmlns="http://www.w3.org/2000/svg" xmlns:xlink="http://www.w3.org/1999/xlink" x="0px" y="0px"
	 viewBox="0 0 512 512" style="enable-background:new 0 0 512 512;" xml:space="preserve">
<path d="M504.3,288h-49.6c-3.5,0-6.6,2.5-7.2,5.9c-0.7,3.7-2,7.2-3.9,10.3c-14.3-18.4-36.6-30.3-61.7-30.3
	c-31.7,0-59,18.9-71.2,46.1H135.3c-4.1,0-7.4-3.3-7.4-7.4v-41.8c0-6.1-7-9.6-11.8-5.9L7.9,346.1c-3.9,3-3.9,8.9,0,11.8l108.2,81.2
	c4.9,3.7,11.8,0.2,11.8-5.9v-41.8c0-4.1,3.3-7.4,7.4-7.4h175.4c12.2,27.2,39.5,46.1,71.2,46.1c35.1,0,64.8-23.2,74.7-55.1
	c30.4-14.2,52.2-44,55.1-79C512.1,291.7,508.7,288,504.3,288z M388.2,384.4h-12.5V384v-64v-0.3h12.5v0.3v64V384.4z"/>
<path d="M57.3,224c3.5,0,6.6-2.5,7.2-5.9C67.3,203.3,80.4,192,96,192h280.6c4.1,0,7.4,3.3,7.4,7.4v41.8c0,6.1,6.9,9.6,11.8,5.9
	l108.3-81.2c3.9-3,3.9-8.9,0-11.8L395.8,72.9c-4.9-3.7-11.8-0.2-11.8,5.9v41.8c0,4.1-3.3,7.4-7.4,7.4H96c-50.2,0-91.6,38.7-95.7,88
	c-0.4,4.3,3,8,7.4,8H57.3z"/>
</svg>
