<?xml version="1.0" encoding="utf-8"?>
<!-- Generator: Adobe Illustrator 20.1.0, SVG Export Plug-In . SVG Version: 6.00 Build 0)  -->
<svg version="1.1" id="Capa_1" xmlns="http://www.w3.org/2000/svg" xmlns:xlink="http://www.w3.org/1999/xlink" x="0px" y="0px"
	 viewBox="0 0 256 256" style="enable-background:new 0 0 256 256;" xml:space="preserve">
<style type="text/css">
	.st0{fill:#419BF9;}
</style>
<g>
	<path class="st0" d="M128,0C57.3,0,0,57.3,0,128s57.3,128,128,128s128-57.3,128-128S198.7,0,128,0z M78.3,143.9
		c-8.7,0-15.9-7.2-15.9-15.9s7.2-15.9,15.9-15.9s15.9,7.2,15.9,15.9S87,143.9,78.3,143.9z M128,143.9c-8.7,0-15.9-7.2-15.9-15.9
		s7.2-15.9,15.9-15.9s15.9,7.2,15.9,15.9S136.7,143.9,128,143.9z M177.7,143.9c-8.7,0-15.9-7.2-15.9-15.9s7.2-15.9,15.9-15.9
		c8.7,0,15.9,7.2,15.9,15.9S186.4,143.9,177.7,143.9z"/>
</g>
</svg>
