<?xml version="1.0" encoding="iso-8859-1"?>
<!-- Generator: Adobe Illustrator 16.0.0, SVG Export Plug-In . SVG Version: 6.00 Build 0)  -->
<!DOCTYPE svg PUBLIC "-//W3C//DTD SVG 1.1//EN" "http://www.w3.org/Graphics/SVG/1.1/DTD/svg11.dtd">
<svg xmlns="http://www.w3.org/2000/svg" xmlns:xlink="http://www.w3.org/1999/xlink" version="1.1" id="Capa_1" x="0px" y="0px" width="512px" height="512px" viewBox="0 0 427.843 427.843" style="enable-background:new 0 0 427.843 427.843;" xml:space="preserve">
<g>
	<path d="M120.265,236.634h193.226c16.33,0,29.57-13.24,29.57-29.571v-6.899c0-16.33-13.24-29.573-29.57-29.573H120.265   c-16.336,0-29.581,13.243-29.581,29.573v6.899C90.696,223.401,103.929,236.634,120.265,236.634z M307.328,176.831   c14.162,0,25.639,11.481,25.639,25.633c0,14.153-11.477,25.629-25.639,25.629c-14.15,0-25.636-11.469-25.636-25.629   C281.692,188.3,293.178,176.831,307.328,176.831z M169.561,176.831h93.156v31.708h-93.156V176.831z M122.896,176.831   c14.162,0,25.631,11.481,25.631,25.633c0,14.153-11.469,25.629-25.631,25.629c-14.152,0-25.629-11.469-25.629-25.629   C97.267,188.3,108.744,176.831,122.896,176.831z" fill="#444444"/>
	<path d="M55.229,183.758H55.17c-0.287,1.168-0.579,2.661-0.908,3.799l-1.162,4.182h4.362l-1.23-4.182   C55.872,186.395,55.527,184.934,55.229,183.758z" fill="#444444"/>
	<path d="M68.024,176.831H42.886v26.786h25.139V176.831z M59.625,200.148l-1.525-5.063h-5.642l-1.409,5.063h-4.591l6-19.721h5.845   l6.147,19.721H59.625z" fill="#444444"/>
	<path d="M420.946,344.998v-17.664h6.896v-80.842h-6.896V82.849c0-2.176-1.764-3.943-3.943-3.943H12.247   c-2.174,0-3.949,1.768-3.949,3.943v163.644H0v80.842h8.306v17.664c0,2.169,1.775,3.939,3.949,3.939h404.756   C419.183,348.938,420.946,347.167,420.946,344.998z M385.128,103.84l17.741,16.479v156.418H31.551V120.31l17.087-16.479h336.49   V103.84z M26.291,84.818c4.727,0,8.54,3.823,8.54,8.542s-3.813,8.54-8.54,8.54c-4.719,0-8.54-3.821-8.54-8.54   S21.572,84.818,26.291,84.818z M26.291,339.164c-4.719,0-8.54-3.827-8.54-8.54c0-4.725,3.821-8.54,8.54-8.54   c4.727,0,8.54,3.815,8.54,8.54C34.831,335.337,31.01,339.164,26.291,339.164z M115.336,342.289c-6.121,0-11.093-4.965-11.093-11.1   c0-6.116,4.972-11.085,11.093-11.085c6.125,0,11.093,4.969,11.093,11.085C126.429,337.324,121.469,342.289,115.336,342.289z    M165.577,327.25c0,2.176-1.764,3.939-3.947,3.939h-6.482c-2.184,0-3.951-1.764-3.951-3.939v-6.488   c0-2.176,1.768-3.955,3.951-3.955h6.482c2.184,0,3.947,1.771,3.947,3.955V327.25z M216.882,311.564   c-4.091,0-7.396-3.314-7.396-7.397c0-4.088,3.312-7.397,7.396-7.397c4.078,0,7.388,3.31,7.388,7.397   C224.27,308.25,220.96,311.564,216.882,311.564z M284.529,327.25c0,2.176-1.763,3.939-3.939,3.939h-6.496   c-2.168,0-3.939-1.764-3.939-3.939v-6.488c0-2.176,1.771-3.955,3.939-3.955h6.496c2.177,0,3.939,1.771,3.939,3.955V327.25z    M317.755,342.289c-6.131,0-11.084-4.965-11.084-11.1c0-6.116,4.953-11.085,11.084-11.085c6.128,0,11.101,4.969,11.101,11.085   C328.855,337.324,323.891,342.289,317.755,342.289z M402.869,341.096c-4.725,0-8.54-3.827-8.54-8.54c0-4.725,3.815-8.54,8.54-8.54   c4.721,0,8.548,3.815,8.548,8.54C411.417,337.269,407.59,341.096,402.869,341.096z M402.869,103.84c-4.725,0-8.54-3.821-8.54-8.54   s3.815-8.544,8.54-8.544c4.721,0,8.548,3.825,8.548,8.544S407.59,103.84,402.869,103.84z" fill="#444444"/>
</g>
<g>
</g>
<g>
</g>
<g>
</g>
<g>
</g>
<g>
</g>
<g>
</g>
<g>
</g>
<g>
</g>
<g>
</g>
<g>
</g>
<g>
</g>
<g>
</g>
<g>
</g>
<g>
</g>
<g>
</g>
</svg>
