<?xml version="1.0" encoding="utf-8"?>
<!-- Generator: Adobe Illustrator 20.1.0, SVG Export Plug-In . SVG Version: 6.00 Build 0)  -->
<svg version="1.1" id="Capa_1" xmlns="http://www.w3.org/2000/svg" xmlns:xlink="http://www.w3.org/1999/xlink" x="0px" y="0px"
	 viewBox="0 0 256 256" style="enable-background:new 0 0 256 256;" xml:space="preserve">
<style type="text/css">
	.st0{fill:#444444;}
</style>
<path class="st0" d="M238.2,8.6c-0.9-0.8-2.2-1.2-3.5-1.1L99,25.1c-2.2,0.3-3.8,2.1-3.8,4.3v26.4v18.5v111.2
	c-8-9.6-20.7-15.9-35-15.9c-24.2,0-43.8,17.7-43.8,39.4s19.7,39.4,43.8,39.4s43.8-17.7,43.8-39.4c0-1-0.1-2-0.2-3
	c0.1-0.3,0.2-0.5,0.2-0.8V78.1l127-16.4v80c-8-9.6-20.7-15.9-35-15.9c-24.2,0-43.8,17.7-43.8,39.4s19.7,39.4,43.8,39.4
	c23.9,0,43.4-17.4,43.8-38.8c0-0.1,0-0.1,0-0.2V56.7V38.3V11.9C239.7,10.6,239.2,9.4,238.2,8.6z"/>
</svg>
