<?xml version="1.0" encoding="utf-8"?>
<!-- Generator: Adobe Illustrator 20.1.0, SVG Export Plug-In . SVG Version: 6.00 Build 0)  -->
<svg version="1.1" id="Capa_1" xmlns="http://www.w3.org/2000/svg" xmlns:xlink="http://www.w3.org/1999/xlink" x="0px" y="0px"
	 viewBox="0 0 52 52" style="enable-background:new 0 0 52 52;" xml:space="preserve">
<style type="text/css">
	.st0{fill:#2687FB;}
</style>
<g>
	<path class="st0" d="M26,0C11.7,0,0,11.7,0,26s11.7,26,26,26s26-11.7,26-26S40.3,0,26,0z M26,50C12.8,50,2,39.2,2,26S12.8,2,26,2
		s24,10.8,24,24S39.2,50,26,50z"/>
	<path class="st0" d="M38.3,15.3L22.9,32.6l-9.3-7.4c-0.4-0.3-1.1-0.3-1.4,0.2c-0.3,0.4-0.3,1.1,0.2,1.4l10,8
		c0.2,0.1,0.4,0.2,0.6,0.2c0.3,0,0.6-0.1,0.7-0.3l16-18c0.4-0.4,0.3-1-0.1-1.4C39.3,14.9,38.6,14.9,38.3,15.3z"/>
</g>
</svg>
