<svg id="Capa_1" data-name="Capa 1" xmlns="http://www.w3.org/2000/svg" viewBox="0 0 60 40"><defs><style>.cls-1{fill:#8cc63f;stroke:#39b54a;stroke-linecap:round;stroke-miterlimit:10;stroke-width:2px;}.cls-2{fill:#fff;}</style></defs><title>cloud</title><path class="cls-1" d="M50,27A16.17,16.17,0,0,0,34.08,11a16.72,16.72,0,0,0-13.66,7.34A8,8,0,0,0,8,25c0,.15,0,.3,0,.45s0,.37,0,.55A12.81,12.81,0,0,0,1,37.15,11.88,11.88,0,0,0,12.85,49H37.35l.41,0,.41,0H48A11.06,11.06,0,0,0,59,38,11.22,11.22,0,0,0,50,27Z" transform="translate(0 -10)"/><path class="cls-2" d="M30.71,25.17a6.88,6.88,0,0,0-5.28,2.2A1.09,1.09,0,0,0,27,28.92a4.71,4.71,0,0,1,3.74-1.58,5.93,5.93,0,0,1,4.21,1.79,5.52,5.52,0,0,1,1.7,3.74L35.26,31.5A1.09,1.09,0,1,0,33.71,33l4,4.06,4.06-4a1.09,1.09,0,0,0-1.52-1.55L38.78,33a7.76,7.76,0,0,0-2.32-5.38A8.09,8.09,0,0,0,30.71,25.17Z" transform="translate(0 -10)"/><path class="cls-2" d="M30.62,39.3a5.94,5.94,0,0,1-4.21-1.79,5.52,5.52,0,0,1-1.7-3.77l1.37,1.4a1.09,1.09,0,1,0,1.55-1.52l-4-4.06-4.06,4a1.09,1.09,0,0,0,1.52,1.55l1.44-1.41A7.74,7.74,0,0,0,24.85,39a8.09,8.09,0,0,0,5.74,2.44,6.88,6.88,0,0,0,5.28-2.2,1.09,1.09,0,0,0-1.53-1.55A4.71,4.71,0,0,1,30.62,39.3Z" transform="translate(0 -10)"/></svg>