<?xml version="1.0" encoding="utf-8"?>
<!-- Generator: Adobe Illustrator 20.1.0, SVG Export Plug-In . SVG Version: 6.00 Build 0)  -->
<svg version="1.1" id="Capa_1" xmlns="http://www.w3.org/2000/svg" xmlns:xlink="http://www.w3.org/1999/xlink" x="0px" y="0px"
	 viewBox="0 0 60 60" style="enable-background:new 0 0 60 60;" xml:space="preserve">
<style type="text/css">
	.st0{fill:#2687FB;}
</style>
<g>
	<path class="st0" d="M51,20.7c-0.5-9-7.9-16.2-16.9-16.2c-5.4,0-10.7,2.7-13.9,7c-0.1,0-0.2-0.1-0.2-0.1c-0.2-0.1-0.4-0.2-0.6-0.3
		c-0.1,0-0.2-0.1-0.3-0.1c-0.2-0.1-0.4-0.1-0.6-0.2c-0.1,0-0.2-0.1-0.3-0.1c-0.2-0.1-0.5-0.1-0.7-0.1c-0.1,0-0.2,0-0.3,0
		c-0.3,0-0.7-0.1-1-0.1c-5,0-9,4-9,9c0,0.1,0,0.3,0,0.4c-4.2,2.3-7,7-7,11.8c0,7.1,5.8,12.8,12.8,12.8H18c0.6,0,1-0.4,1-1
		s-0.4-1-1-1h-5.2C6.9,42.5,2,37.6,2,31.7c0-4.2,2.7-8.5,6.4-10.3L9,21.1v-0.6c0-0.1,0-0.2,0-0.4L9,20l0-0.2c0-0.1,0-0.2,0-0.3
		c0-3.9,3.1-7,7-7c0.3,0,0.6,0,0.9,0.1c0.1,0,0.2,0,0.2,0c0.3,0,0.5,0.1,0.8,0.2c0,0,0.1,0,0.1,0c0.3,0.1,0.6,0.2,0.8,0.3
		c0.1,0,0.1,0.1,0.2,0.1c0.2,0.1,0.5,0.3,0.7,0.4c1.9,1.2,3.2,3.4,3.2,5.9c0,0.6,0.4,1,1,1s1-0.4,1-1c0-2.8-1.2-5.2-3.2-6.9
		c2.9-3.8,7.6-6.1,12.3-6.1c7.7,0,14.2,6.1,14.8,13.9c-1-0.1-2.6-0.1-4.1,0.1c-0.5,0.1-0.9,0.6-0.8,1.1c0.1,0.5,0.5,0.9,1,0.9
		c0,0,0.1,0,0.2,0c2.2-0.3,4.5,0,4.7,0c4.7,0.9,8.2,5.2,8.2,10c0,5.5-4.5,10-10,10h-4c-0.6,0-1,0.4-1,1s0.4,1,1,1h4
		c6.6,0,12-5.4,12-12C60,27,56.2,22.1,51,20.7z"/>
	<path class="st0" d="M31.7,30.8c-0.1-0.1-0.2-0.2-0.3-0.2c-0.2-0.1-0.5-0.1-0.8,0c-0.1,0.1-0.2,0.1-0.3,0.2l-8,8
		c-0.4,0.4-0.4,1,0,1.4c0.2,0.2,0.5,0.3,0.7,0.3s0.5-0.1,0.7-0.3l6.3-6.3v20.6c0,0.6,0.4,1,1,1s1-0.4,1-1V33.9l6.3,6.3
		c0.2,0.2,0.5,0.3,0.7,0.3s0.5-0.1,0.7-0.3c0.4-0.4,0.4-1,0-1.4L31.7,30.8z"/>
</g>
</svg>
