<?xml version="1.0" encoding="utf-8"?>
<!-- Generator: Adobe Illustrator 20.1.0, SVG Export Plug-In . SVG Version: 6.00 Build 0)  -->
<svg version="1.1" id="Layer_1" xmlns="http://www.w3.org/2000/svg" xmlns:xlink="http://www.w3.org/1999/xlink" x="0px" y="0px"
	 viewBox="0 0 24 24" style="enable-background:new 0 0 24 24;" xml:space="preserve">
<style type="text/css">
	.st0{fill:#28CA42;}
	.st1{fill:#11AB24;}
	.st2{fill:none;stroke:#333333;stroke-width:2;stroke-linecap:round;stroke-miterlimit:10;}
</style>
<title>window-maximize.hover</title>
<g id="Layer_2">
	<g id="Layer_1-2">
		<path class="st0" d="M12,23.5C5.6,23.5,0.5,18.4,0.5,12S5.6,0.5,12,0.5S23.5,5.6,23.5,12S18.4,23.5,12,23.5L12,23.5z"/>
		<path class="st1" d="M12,1c6.1,0,11,4.9,11,11s-4.9,11-11,11S1,18.1,1,12S5.9,1,12,1 M12,0C5.4,0,0,5.4,0,12s5.4,12,12,12
			s12-5.4,12-12S18.6,0,12,0z"/>
	</g>
</g>
<line class="st2" x1="5.9" y1="12" x2="18.1" y2="12"/>
<line class="st2" x1="12" y1="18.1" x2="12" y2="5.9"/>
</svg>
