<?xml version="1.0" encoding="utf-8"?>
<!-- Generator: Adobe Illustrator 20.1.0, SVG Export Plug-In . SVG Version: 6.00 Build 0)  -->
<svg version="1.1" id="Layer_1" xmlns="http://www.w3.org/2000/svg" xmlns:xlink="http://www.w3.org/1999/xlink" x="0px" y="0px"
	 viewBox="0 0 24 24" style="enable-background:new 0 0 24 24;" xml:space="preserve">
<style type="text/css">
	.st0{fill:#FFBE2F;}
	.st1{fill:#DFA226;}
</style>
<title>window-minimize</title>
<path class="st0" d="M12,23.5C5.6,23.5,0.5,18.4,0.5,12S5.6,0.5,12,0.5S23.5,5.6,23.5,12C23.5,18.3,18.3,23.5,12,23.5z"/>
<path class="st1" d="M12,1c6.1,0,11,4.9,11,11s-4.9,11-11,11S1,18.1,1,12S5.9,1,12,1 M12,0L12,0C5.4,0,0,5.4,0,12l0,0
	c0,6.6,5.4,12,12,12l0,0c6.6,0,12-5.4,12-12l0,0C24,5.4,18.6,0,12,0z"/>
</svg>
